<?xml version="1.0" encoding="UTF-8" standalone="no"?>
<!-- Generator: Adobe Illustrator 17.1.0, SVG Export Plug-In . SVG Version: 6.00 Build 0)  -->

<svg
   xmlns:dc="http://purl.org/dc/elements/1.1/"
   xmlns:cc="http://creativecommons.org/ns#"
   xmlns:rdf="http://www.w3.org/1999/02/22-rdf-syntax-ns#"
   xmlns:svg="http://www.w3.org/2000/svg"
   xmlns="http://www.w3.org/2000/svg"
   xmlns:sodipodi="http://sodipodi.sourceforge.net/DTD/sodipodi-0.dtd"
   xmlns:inkscape="http://www.inkscape.org/namespaces/inkscape"
   version="1.1"
   id="Layer_1"
   x="0px"
   y="0px"
   viewBox="0 0 612 792"
   enable-background="new 0 0 612 792"
   xml:space="preserve"
   inkscape:version="0.48.5 r10040"
   width="100%"
   height="100%"
   sodipodi:docname="alien.svg"><metadata
     id="metadata31"><rdf:RDF><cc:Work
         rdf:about=""><dc:format>image/svg+xml</dc:format><dc:type
           rdf:resource="http://purl.org/dc/dcmitype/StillImage" /><dc:title></dc:title></cc:Work></rdf:RDF></metadata><defs
     id="defs29" /><sodipodi:namedview
     pagecolor="#ffffff"
     bordercolor="#666666"
     borderopacity="1"
     objecttolerance="10"
     gridtolerance="10"
     guidetolerance="10"
     inkscape:pageopacity="0"
     inkscape:pageshadow="2"
     inkscape:window-width="1194"
     inkscape:window-height="901"
     id="namedview27"
     showgrid="false"
     inkscape:zoom="1.5985113"
     inkscape:cx="241.76215"
     inkscape:cy="624.30293"
     inkscape:window-x="0"
     inkscape:window-y="0"
     inkscape:window-maximized="0"
     inkscape:current-layer="g3" /><g
     id="g3"><path
       style="fill:none;stroke:#000000;stroke-width:1px;stroke-linecap:butt;stroke-linejoin:miter;stroke-opacity:1"
       d="m 272.75378,6.268905 110.72803,31.279104 40.03725,41.914004 16.89072,58.804707 -104.47221,36.90934 -33.78143,51.29774 18.14188,6.8814 56.92797,-14.38839 56.30239,-38.16051 -23.77212,48.79541 -24.3977,26.90003 -37.53493,32.53026 -25.64886,30.65353 -5.00466,23.77211 8.75815,20.64421 25.64886,25.64887 34.40702,50.67215 11.26048,36.28376 7.50698,33.15585 21.26979,30.02794 13.76281,30.65352 -26.27445,-11.88606 3.12791,25.02328 -26.27445,-23.77212 -1.25116,41.914 -14.38839,-31.90468 -13.13722,-92.58615 10.00931,92.58615 21.26979,48.7954 -2.50233,24.3977 4.37908,23.77212 27.52561,31.2791 43.16516,4.37908 16.26514,0 4.37907,4.37907 0,6.25582 -28.77677,4.37908 -84.45358,-1.25116 -7.50699,-111.35362 -30.02794,13.13723 -30.65352,6.8814 -26.27445,-5.63024 -10.00931,75.69543 -7.50699,23.77212 -16.26513,7.50699 -86.95591,3.75349 -5.63024,-3.12791 15.01397,-13.13722 47.54424,-13.76281 19.39304,-7.50698 5.63024,-72.56753 5.00466,-10.00931 -1.87675,-48.7954 -4.37907,-35.0326 1.25116,-26.27445 -0.62558,-11.88605 -6.8814,20.6442 -0.62558,24.39771 3.75349,21.89537 5.00465,32.53027 -1.25116,21.89537 -15.63955,-27.52561 -9.38373,40.03725 -13.13723,-42.53958 -11.88606,29.40236 -7.50698,-16.89072 32.53027,-128.86991 23.14653,-44.41633 25.02329,-37.53492 18.76746,-40.66284 -66.93728,-48.16982 -38.16051,-35.03259 -43.79075,-45.66749 -7.50698,-29.40236 19.39304,17.5163 36.28376,13.7628 40.66284,8.13257 40.66284,6.8814 5.00465,-9.38373 -16.89071,-21.89537 -21.89538,-21.89538 -45.04191,-26.27444 -48.7954,-23.77212 -6.25582,-1.25117 37.53492,-65.06053 101.3443,-49.420984"
       id="path3043"
       inkscape:connector-curvature="0" /></g></svg>