<?xml version="1.0" encoding="UTF-8" standalone="no"?>
<!-- Created with Inkscape (http://www.inkscape.org/) -->

<svg
   xmlns:dc="http://purl.org/dc/elements/1.1/"
   xmlns:cc="http://creativecommons.org/ns#"
   xmlns:rdf="http://www.w3.org/1999/02/22-rdf-syntax-ns#"
   xmlns:svg="http://www.w3.org/2000/svg"
   xmlns="http://www.w3.org/2000/svg"
   version="1.1"
   width="100%"
   height="100%"
   viewBox="0 0 612 792"
   id="Layer_1"
   xml:space="preserve"><metadata
     id="metadata13"><rdf:RDF><cc:Work
         rdf:about=""><dc:format>image/svg+xml</dc:format><dc:type
           rdf:resource="http://purl.org/dc/dcmitype/StillImage" /><dc:title></dc:title></cc:Work></rdf:RDF></metadata><defs
     id="defs11" /><path
     d="m 9.1524336,585.0533 8.1354974,12.71172 57.96541,25.93189 61.016229,18.30487 47.28757,28.98271 41.18595,16.27099 36.10127,3.55928 37.1182,-2.54234 22.88109,-5.59316 66.10091,-35.5928 27.4573,-8.13549 31.52505,-8.64397 34.06739,-11.69477 39.15208,-22.37262 17.7964,-11.69478 4.06775,-14.74558 -6.61009,-16.77947 -20.33875,-18.30486 -57.45694,-20.33875 -36.60974,-13.22018 -37.1182,-26.94883 -47.28758,-40.16902 -57.45694,-14.23712 -48.81298,2.03388 -43.21983,13.22018 -53.38919,37.62667 -19.32181,27.4573 -26.948829,10.16938 -57.965412,21.86414 -14.23712,6.10163 -14.74558744,15.76252 0,10.16937 7.62702804,15.76253 27.4573014,17.28793 25.931894,11.69477 21.864146,6.61009 55.423069,15.25406 38.13514,6.10162 56.94848,6.61009 34.06739,0 62.03316,-1.01693 60.50776,-10.16937 59.49082,-15.25406 44.74523,-14.23712 43.21983,-30.50811 5.08468,-4.57622 -8.64396,-19.3218 -17.7964,-11.69478 -86.43965,-32.03352 -16.271,-6.61009 4.06775,18.81334 0,11.1863 -3.05081,6.10163 -43.72829,18.81333 -49.82992,8.1355 -59.99929,2.54234 -57.96541,-4.57621 -65.08398,-11.18631 -28.9827,-11.18631 -3.55928,-14.74559 6.61009,-17.28793 0,-3.05081 -48.304519,17.7964 -46.779097,19.83027 -16.77946244,15.25406 -1.01693796,10.67784 7.11856,16.77946"
     id="path2994"
     style="fill:none;stroke:#000000;stroke-width:1px;stroke-linecap:butt;stroke-linejoin:miter;stroke-opacity:1" /></svg>