<?xml version="1.0" encoding="UTF-8" standalone="no"?>
<!-- Created with Inkscape (http://www.inkscape.org/) -->

<svg
   xmlns:dc="http://purl.org/dc/elements/1.1/"
   xmlns:cc="http://creativecommons.org/ns#"
   xmlns:rdf="http://www.w3.org/1999/02/22-rdf-syntax-ns#"
   xmlns:svg="http://www.w3.org/2000/svg"
   xmlns="http://www.w3.org/2000/svg"
   version="1.1"
   width="100%"
   height="100%"
   viewBox="0 0 612 792"
   id="Layer_1"
   xml:space="preserve"><metadata
     id="metadata47"><rdf:RDF><cc:Work
         rdf:about=""><dc:format>image/svg+xml</dc:format><dc:type
           rdf:resource="http://purl.org/dc/dcmitype/StillImage" /><dc:title></dc:title></cc:Work></rdf:RDF></metadata><defs
     id="defs45" /><g
     id="g3"><path
       d="m 115.73899,25.5406 -17.213624,12.910221 18.799094,19.705072 -4.7564,3.85042 -4.07691,0.90598 -9.059804,-2.26495 -1.358971,5.88887 -1.132475,2.71794 13.36321,2.49145 16.30765,-10.87177 3.17093,0 18.11961,10.64527 21.06404,-18.79909 0.90598,18.11961 37.1452,-0.2265 0.22649,-16.76064 6.11537,2.49145 3.85042,3.39743 2.49144,5.20938 2.26495,6.11537 35.55973,0.45299 2.26495,-1.35897 8.38032,1.58547 9.05981,-4.30341 10.87176,-5.88887 3.17093,-0.2265 16.53414,9.96579 21.97003,-19.02559 0.45299,18.5726 28.31188,-0.2265 -0.22649,-8.38032 -17.89311,0 -0.2265,-36.012718 -9.51279,0.226496 -0.2265,17.666617 -21.29054,-18.346103 -21.51703,23.102498 -1.35897,1.13248 -17.21363,-12.004243 6.11537,-3.850416 9.2863,1.35897 2.49144,-7.700833 -10.64527,-2.038456 -17.44012,12.230735 19.47858,20.384563 -7.24784,4.5299 -11.55125,-2.26495 -2.26495,2.03845 -16.30765,0 -0.45299,-9.96578 16.30765,-0.2265 0,-9.0598 -15.85466,0 0,-8.380319 17.66662,-0.90598 -0.2265,-7.927329 -27.17941,0.679486 -0.22649,36.918702 -2.26496,-0.45299 -6.11536,-13.58971 7.02135,-9.286297 -0.45299,-3.850416 -1.81197,-5.209387 -4.07691,-2.717942 -11.32475,-2.717941 -12.00424,0 -2.03846,1.358971 -0.67948,34.880242 -16.76064,-0.45299 -0.45299,-35.333232 -10.19228,0.226495 0,17.666617 -20.83755,-19.252083 -23.1025,24.461473 -16.98713,-11.551253 5.43588,-4.076911 9.5128,1.35897 2.71794,-7.474338 -8.83331,-2.038456"
       id="path3064"
       style="fill:none;stroke:#000000;stroke-width:1px;stroke-linecap:butt;stroke-linejoin:miter;stroke-opacity:1" /></g></svg>